<?xml version="1.0" encoding="UTF-8" standalone="no"?>
<!-- Created with Inkscape (http://www.inkscape.org/) -->

<svg
   width="200mm"
   height="200mm"
   viewBox="0 0 200 200"
   version="1.1"
   id="svg1"
   xml:space="preserve"
   xmlns="http://www.w3.org/2000/svg"
   xmlns:svg="http://www.w3.org/2000/svg"><defs
     id="defs1" /><g
     id="layer3"
     style="display:inline"><circle
       style="display:inline;fill:#3838e0;fill-opacity:1;stroke-width:1.38779;stroke-dasharray:none"
       id="path1"
       cx="99.999992"
       cy="92.03054"
       r="50" /><path
       style="fill:#3838e0;fill-opacity:1;stroke:#ffffff;stroke-width:2;stroke-dasharray:none;stroke-opacity:1"
       d="m 114.67308,58.266074 c 4.70308,2.27568 12.16037,10.22592 16.54899,19.34708 5.38243,11.18667 6.12484,34.205506 1.98887,37.667976 -1.88985,1.58211 -9.35745,2.67507 -18.43856,-1.8602 -6.89044,-3.4412 -11.3037,-13.14921 -11.25796,-22.585446 0.0221,-4.56347 1.39101,-17.12044 3.57628,-25.3454 1.36509,-5.13795 2.49682,-8.49346 7.58238,-7.22401 z"
       id="path2-5" /><path
       style="fill:#3838e0;fill-opacity:1;stroke:#ffffff;stroke-width:2;stroke-dasharray:none;stroke-opacity:1"
       d="m 85.32692,58.266074 c -4.703079,2.27568 -12.160374,10.22592 -16.548985,19.34707 -5.38243,11.18667 -6.124841,34.205506 -1.988877,37.667976 1.889851,1.58211 9.35745,2.67507 18.438562,-1.8602 6.89044,-3.4412 11.303697,-13.14921 11.257957,-22.585446 -0.0221,-4.56347 -1.390997,-17.12044 -3.576267,-25.34539 -1.3651,-5.13795 -2.49683,-8.49346 -7.58239,-7.22401 z"
       id="path2" /><path
       style="display:inline;fill:none;fill-opacity:1;stroke:#ffffff;stroke-width:1.5;stroke-dasharray:none;stroke-opacity:1"
       d="m 93.573976,67.125582 c 0,0 4.116775,-0.50242 4.116775,-2.20456 v -10.64462 h 4.332679 v 10.64462 c 0,1.62131 4.7803,2.20456 4.7803,2.20456 l -1.12253,3.66901 c 0,0 -3.73158,-1.9784 -5.82411,-1.93601 -2.04644,0.0414 -5.753947,2.12053 -5.753947,2.12053 z"
       id="path50" /><path
       id="rect51"
       style="fill:none;fill-opacity:1;stroke:#ffffff;stroke-width:1.5;stroke-dasharray:none;stroke-opacity:1"
       d="m 95.61298,112.95987 v 6.00015 h -5.999634 v 8.00003 h 5.999634 v 5.99963 h 8.00003 v -5.99963 h 6.00015 v -8.00003 h -6.00015 v -6.00015 z" /></g></svg>
